HIERARCHY
ROOT Pelvis
{
	OFFSET 0.000000 0.000000 0.000000
	CHANNELS 6 Xposition Yposition Zposition Xrotation Yrotation Zrotation
	JOINT LeftUpLeg_virtual
	{
		OFFSET 0.000000 0.000000 0.000000
		CHANNELS 3 Xrotation Yrotation Zrotation
		JOINT LeftUpLeg
		{
			OFFSET 18.735201 -5.666702 -4.541200
			CHANNELS 3 Xrotation Yrotation Zrotation
			JOINT LeftLeg
			{
				OFFSET -0.021200 -31.938179 0.493100
				CHANNELS 3 Xrotation Yrotation Zrotation
				JOINT LeftFoot
				{
					OFFSET 0.021200 -31.938179 -4.336299
					CHANNELS 3 Xrotation Yrotation Zrotation
					JOINT LeftToeBase
					{
						OFFSET 0.943001 -26.722000 15.023500
						CHANNELS 3 Xrotation Yrotation Zrotation
						End Site
						{
							OFFSET 0 0 0
						}
					}
				}
			}
		}
	}
	JOINT RightUpLeg_virtual
	{
		OFFSET 0.000000 0.000000 0.000000
		CHANNELS 3 Xrotation Yrotation Zrotation
		JOINT RightUpLeg
		{
			OFFSET -18.735201 -5.666702 -4.541200
			CHANNELS 3 Xrotation Yrotation Zrotation
			JOINT RightLeg
			{
				OFFSET 0.018946 -31.938133 0.493100
				CHANNELS 3 Xrotation Yrotation Zrotation
				JOINT RightFoot
				{
					OFFSET -0.018946 -31.938126 -4.336299
					CHANNELS 3 Xrotation Yrotation Zrotation
					JOINT RightToeBase
					{
						OFFSET -0.943001 -26.722004 15.023500
						CHANNELS 3 Xrotation Yrotation Zrotation
						End Site
						{
							OFFSET 0 0 0
						}
					}
				}
			}
		}
	}
	JOINT Hips_virtual
	{
		OFFSET 0.000000 0.000000 0.000000
		CHANNELS 3 Xrotation Yrotation Zrotation
		JOINT Hips
		{
			OFFSET -0.000000 -0.000000 -0.000000
			CHANNELS 3 Xrotation Yrotation Zrotation
			JOINT Spine
			{
				OFFSET 0.000000 10.199997 -0.299500
				CHANNELS 3 Xrotation Yrotation Zrotation
				JOINT Spine1
				{
					OFFSET 0.000000 11.900002 -1.516600
					CHANNELS 3 Xrotation Yrotation Zrotation
					JOINT Spine2
					{
						OFFSET 0.000000 13.600006 -2.842500
						CHANNELS 3 Xrotation Yrotation Zrotation
						JOINT Neck_virtual
						{
							OFFSET 0.000000 0.000000 0.000000
							CHANNELS 3 Xrotation Yrotation Zrotation
							JOINT Neck
							{
								OFFSET 0.000000 9.624100 -2.890100
								CHANNELS 3 Xrotation Yrotation Zrotation
								JOINT Head
								{
									OFFSET 0.000000 14.068802 -1.351900
									CHANNELS 3 Xrotation Yrotation Zrotation
									End Site
									{
										OFFSET 0 0 0
									}
								}
							}
						}
						JOINT LeftShoulder_virtual
						{
							OFFSET 0.000000 0.000000 0.000000
							CHANNELS 3 Xrotation Yrotation Zrotation
							JOINT LeftShoulder
							{
								OFFSET 15.263000 10.923401 -0.547700
								CHANNELS 3 Xrotation Yrotation Zrotation
								JOINT LeftArm
								{
									OFFSET 25.438599 -2.830597 -13.032500
									CHANNELS 3 Xrotation Yrotation Zrotation
									JOINT LeftForeArm
									{
										OFFSET 29.960503 0.000000 0.000000
										CHANNELS 3 Xrotation Yrotation Zrotation
										JOINT LeftHand
										{
											OFFSET 27.849251 0.000000 0.000000
											CHANNELS 3 Xrotation Yrotation Zrotation
											End Site
											{
												OFFSET 0 0 0
											}
										}
									}
								}
							}
						}
						JOINT RightShoulder_virtual
						{
							OFFSET 0.000000 0.000000 0.000000
							CHANNELS 3 Xrotation Yrotation Zrotation
							JOINT RightShoulder
							{
								OFFSET -15.263000 10.923401 -0.547700
								CHANNELS 3 Xrotation Yrotation Zrotation
								JOINT RightArm
								{
									OFFSET -25.438599 -2.830597 -13.032500
									CHANNELS 3 Xrotation Yrotation Zrotation
									JOINT RightForeArm
									{
										OFFSET -29.960503 0.000000 0.000000
										CHANNELS 3 Xrotation Yrotation Zrotation
										JOINT RightHand
										{
											OFFSET -27.849251 0.000000 0.000000
											CHANNELS 3 Xrotation Yrotation Zrotation
											End Site
											{
												OFFSET 0 0 0
											}
										}
									}
								}
							}
						}
					}
				}
			}
		}
	}
}
MOTION
Frames: 13
Frame Time: 0.03333333
-3.526494 78.410347 3.057369 0.000000 0.000000 0.000000 11.660450 -49.374427 11.268413 -69.006972 20.606595 47.788146 51.256656 -22.124325 3.397183 2.960961 1.488329 -15.125358 0.000000 0.000000 0.000000 11.660450 -49.374427 11.268413 -33.116240 3.851183 -30.939808 58.819376 4.953896 -6.674913 -30.772840 -6.442859 30.151860 0.000000 0.000000 0.000000 11.660450 -49.374427 11.268413 0.000001 -0.000002 0.000000 10.972522 2.720484 -2.032877 6.100707 5.566525 -4.284679 0.000000 0.000000 0.000000 -5.786926 6.328150 -3.046183 0.458823 1.873393 -0.022544 0.000000 0.000000 0.000000 -5.786926 6.328150 -3.046183 -1.875340 -16.181743 -2.870471 -10.644671 2.164755 -45.510654 -22.862375 -25.786259 -15.871649 0.000000 0.000000 0.000000 -5.786926 6.328150 -3.046183 -5.074767 24.344980 1.482929 6.642441 -34.735009 57.610419 -21.032050 44.833864 19.961740 0.000000 0.000000 0.000000 
-3.588142 78.567307 2.824463 0.000000 0.000000 0.000000 11.330484 -50.033509 10.892600 -68.446350 20.654665 48.337635 50.769018 -22.017545 3.362820 3.085618 1.537744 -15.474786 0.000000 0.000000 0.000000 11.330484 -50.033509 10.892600 -33.400687 3.763991 -30.554841 58.746778 5.253160 -6.658646 -30.474689 -5.964654 29.754759 0.000000 0.000000 0.000000 11.330484 -50.033509 10.892600 0.000000 -0.000001 0.000000 10.927428 2.724924 -2.043592 5.754459 5.620916 -4.465459 0.000000 0.000000 0.000000 -6.114668 6.395255 -3.246991 0.486590 1.949040 -0.059940 0.000000 0.000000 0.000000 -6.114668 6.395255 -3.246991 -1.856188 -16.125025 -2.793419 -9.304243 3.610387 -44.990613 -23.777459 -29.920702 -18.575193 0.000000 0.000000 0.000000 -6.114668 6.395255 -3.246991 -5.081655 24.149913 1.470715 7.290156 -35.178923 57.904479 -21.255083 45.591175 20.253102 0.000000 0.000000 0.000000 
-3.669830 78.719696 2.610405 0.000000 0.000000 0.000000 11.136629 -50.716986 10.690440 -67.823027 20.777478 48.759867 50.251252 -21.836011 3.419664 3.149025 1.651464 -15.933274 0.000000 0.000000 0.000000 11.136629 -50.716986 10.690440 -33.763288 3.758465 -30.222914 58.693359 5.560504 -6.638255 -30.186130 -5.496945 29.370589 0.000000 0.000000 0.000000 11.136629 -50.716986 10.690440 0.000000 -0.000005 0.000001 10.897221 2.704308 -2.043430 5.549815 5.637693 -4.562777 0.000000 0.000000 0.000000 -6.308808 6.419470 -3.362155 0.422212 2.054977 -0.075706 0.000000 0.000000 0.000000 -6.308808 6.419470 -3.362155 -1.847867 -16.070636 -2.774186 -8.282005 4.767144 -44.394218 -24.638253 -33.133794 -20.826565 0.000000 0.000000 0.000000 -6.308808 6.419470 -3.362155 -4.969658 24.003423 1.112969 9.818349 -37.442397 58.296313 -23.000375 49.695948 22.598046 0.000000 0.000000 0.000000 
-3.772516 78.861176 2.410492 0.000000 0.000000 0.000000 11.173721 -51.451173 10.735068 -67.252098 21.004995 49.215191 49.679685 -21.644615 3.424048 3.179668 1.787784 -16.398833 0.000000 0.000000 0.000000 11.173721 -51.451173 10.735068 -34.283892 3.861250 -29.917482 58.668204 5.878550 -6.618572 -29.892111 -5.030468 28.997302 0.000000 0.000000 0.000000 11.173721 -51.451173 10.735068 0.000000 -0.000005 0.000000 10.872174 2.668470 -2.053244 5.370468 5.615221 -4.602945 0.000000 0.000000 0.000000 -6.485333 6.402643 -3.425195 0.306858 2.151113 -0.099946 0.000000 0.000000 0.000000 -6.485333 6.402643 -3.425195 -1.832327 -15.909969 -2.693245 -7.601347 5.440239 -43.854558 -25.343781 -35.396421 -22.608131 0.000000 0.000000 0.000000 -6.485333 6.402643 -3.425195 -4.851213 23.775675 0.768369 11.890559 -39.683252 58.329454 -25.251467 53.552709 25.231682 0.000000 0.000000 0.000000 
-3.882607 78.996109 2.218681 0.000000 0.000000 0.000000 11.303709 -52.211769 10.894194 -66.660775 21.284780 49.633820 49.085018 -21.418047 3.436908 3.191108 1.949908 -16.896350 0.000000 0.000000 0.000000 11.303709 -52.211769 10.894194 -34.864895 4.015887 -29.633462 58.659188 6.205513 -6.599468 -29.594841 -4.565497 28.632944 0.000000 0.000000 0.000000 11.303709 -52.211769 10.894194 0.000000 -0.000001 0.000000 10.842098 2.639684 -2.068555 5.287554 5.515834 -4.597275 0.000000 0.000000 0.000000 -6.569711 6.308100 -3.437968 0.207491 2.238328 -0.074596 0.000000 0.000000 0.000000 -6.569711 6.308100 -3.437968 -1.778185 -15.995524 -2.308536 -6.990182 6.173951 -43.710929 -25.996634 -37.298495 -23.847641 0.000000 0.000000 0.000000 -6.569711 6.308100 -3.437968 -4.645112 23.425683 0.308007 13.145889 -41.827532 57.974769 -27.628411 56.724711 27.655028 0.000000 0.000000 0.000000 
-3.990695 79.131798 2.021870 0.000000 0.000000 0.000000 11.389604 -53.056667 11.042994 -65.967804 21.610206 50.005413 48.582067 -22.130660 3.451541 3.154347 3.165008 -17.406256 0.000000 0.000000 0.000000 11.389604 -53.056667 11.042994 -35.468421 4.195545 -29.358906 58.665540 6.580005 -6.578759 -29.271541 -4.056879 28.253873 0.000000 0.000000 0.000000 11.389604 -53.056667 11.042994 0.000000 -0.000001 0.000000 10.849086 2.613240 -2.053063 5.371035 5.355685 -4.571352 0.000000 0.000000 0.000000 -6.482939 6.146445 -3.429146 0.025260 2.366930 -0.147192 0.000000 0.000000 0.000000 -6.482939 6.146445 -3.429146 -1.756439 -15.966134 -2.165178 -6.645644 6.427178 -42.907023 -26.587237 -38.828830 -25.272038 0.000000 0.000000 0.000000 -6.482939 6.146445 -3.429146 -4.319641 23.154946 -0.587317 13.881962 -43.939819 57.597203 -28.818122 58.482088 28.215522 0.000000 0.000000 0.000000 
-4.112678 79.252892 1.803898 0.000000 0.000000 0.000000 11.691908 -54.210132 11.471055 -65.073254 22.029874 50.443163 47.981741 -21.721441 3.538498 3.003340 3.540507 -18.145296 0.000000 0.000000 0.000000 11.691908 -54.210132 11.471055 -36.417199 4.574668 -29.085900 58.774317 7.105243 -6.553009 -28.859305 -3.400320 27.818010 0.000000 0.000000 0.000000 11.691908 -54.210132 11.471055 0.000000 0.000001 0.000000 10.822314 2.590399 -2.075576 5.501344 5.217126 -4.646267 0.000000 0.000000 0.000000 -6.348709 6.027227 -3.508410 -0.154094 2.511519 -0.221684 0.000000 0.000000 0.000000 -6.348709 6.027227 -3.508410 -1.744014 -15.645168 -2.158801 -6.689811 6.589846 -41.789727 -27.069006 -39.981243 -26.087817 0.000000 0.000000 0.000000 -6.348709 6.027227 -3.508410 -4.018466 22.701413 -1.358579 13.476980 -45.529460 56.379144 -29.535900 59.535931 28.129818 0.000000 0.000000 0.000000 
-4.258376 79.350494 1.542408 0.000000 0.000000 0.000000 12.490700 -56.014248 12.276398 -64.044915 22.405677 51.350571 47.512500 -21.164555 3.498010 2.587674 4.185116 -19.101683 0.000000 0.000000 0.000000 12.490700 -56.014248 12.276398 -38.015856 5.128626 -28.545300 58.859906 7.912580 -6.513967 -28.143012 -2.396443 27.236651 0.000000 0.000000 0.000000 12.490700 -56.014248 12.276398 0.000000 0.000004 0.000000 10.733799 2.592700 -2.126654 5.502420 5.166517 -4.669873 0.000000 0.000000 0.000000 -6.355139 5.994703 -3.523953 -0.319685 2.728937 -0.222334 0.000000 0.000000 0.000000 -6.355139 5.994703 -3.523953 -1.684231 -14.773575 -2.002664 -6.719996 6.179395 -40.699851 -27.193292 -40.177321 -26.437055 0.000000 0.000000 0.000000 -6.355139 5.994703 -3.523953 -3.755553 22.223141 -2.209511 11.179597 -46.583342 53.515406 -28.679876 59.639900 26.138859 0.000000 0.000000 0.000000 
-4.420886 79.412575 1.230461 0.000000 0.000000 0.000000 13.938706 -58.430916 13.644706 -62.596826 22.683605 52.331697 47.127373 -20.198765 3.502921 1.930972 5.198027 -20.498011 0.000000 0.000000 0.000000 13.938706 -58.430916 13.644706 -40.267701 5.831714 -27.714148 58.913209 8.983399 -6.462521 -27.100893 -1.069753 26.526597 0.000000 0.000000 0.000000 13.938706 -58.430916 13.644706 0.000001 0.000000 0.000000 10.577419 2.532585 -2.205030 5.311431 4.990787 -4.676577 0.000000 0.000000 0.000000 -6.555925 5.841108 -3.554081 -0.445037 3.075589 -0.333589 0.000000 0.000000 0.000000 -6.555925 5.841108 -3.554081 -1.585899 -14.091378 -1.456195 -6.151798 6.712788 -39.744297 -27.242083 -40.172338 -26.723933 0.000000 0.000000 0.000000 -6.555925 5.841108 -3.554081 -3.521504 21.762233 -3.042212 8.343996 -45.967286 50.166974 -27.201578 59.287333 23.482921 0.000000 0.000000 0.000000 
-4.591978 79.455978 0.877007 0.000000 0.000000 0.000000 16.285305 -61.006949 16.114646 -60.889975 23.442753 53.016854 46.322801 -19.012863 3.490879 1.403496 6.369161 -22.098703 0.000000 0.000000 0.000000 16.285305 -61.006949 16.114646 -43.009380 6.795570 -26.888488 59.046214 10.133340 -6.413689 -25.920192 0.330537 25.810863 0.000000 0.000000 0.000000 16.285305 -61.006949 16.114646 0.000000 0.000000 0.000000 10.341186 2.347852 -2.408884 4.836285 4.569107 -4.996022 0.000000 0.000000 0.000000 -7.026014 5.501796 -3.955152 -0.573171 3.485196 -0.423379 0.000000 0.000000 0.000000 -7.026014 5.501796 -3.955152 -1.478458 -13.174783 -0.831403 -5.457964 7.481094 -38.013305 -27.355053 -40.301572 -27.328468 0.000000 0.000000 0.000000 -7.026014 5.501796 -3.955152 -3.286620 21.294387 -3.902335 5.469354 -44.832399 46.906772 -25.517370 58.830380 20.618398 0.000000 0.000000 0.000000 
-4.728249 79.488579 0.525864 0.000000 0.000000 0.000000 19.243124 -63.077494 19.304913 -59.441702 24.456187 53.284922 45.193586 -17.900266 3.452154 1.229293 7.385162 -23.518443 0.000000 0.000000 0.000000 19.243124 -63.077494 19.304913 -45.653866 7.750997 -26.144393 59.155790 11.057146 -6.379643 -24.827656 1.480888 25.225562 0.000000 0.000000 0.000000 19.243124 -63.077494 19.304913 -0.000001 0.000001 0.000000 10.046464 2.069377 -2.628636 4.197219 3.977801 -5.378209 0.000000 0.000000 0.000000 -7.653356 5.004036 -4.456165 -0.594810 3.897572 -0.524681 0.000000 0.000000 0.000000 -7.653356 5.004036 -4.456165 -1.356966 -12.655970 0.042191 -4.632925 7.949200 -35.668344 -26.789728 -38.789884 -27.311550 0.000000 0.000000 0.000000 -7.653356 5.004036 -4.456165 -3.033224 20.801027 -4.833295 2.826891 -44.395779 43.957223 -23.966073 58.642850 17.915687 0.000000 0.000000 0.000000 
-4.780489 79.467850 0.168365 0.000000 0.000000 0.000000 22.557501 -64.601883 22.948500 -58.645876 25.886736 53.958850 43.924523 -17.036522 3.056042 1.306243 7.840312 -24.397781 0.000000 0.000000 0.000000 22.557501 -64.601883 22.948500 -48.200993 8.737905 -25.514172 59.380654 11.763634 -6.358509 -23.875059 2.375000 24.775934 0.000000 0.000000 0.000000 22.557501 -64.601883 22.948500 0.000000 0.000000 0.000000 9.752790 1.706279 -2.821808 3.590870 3.227002 -5.740109 0.000000 0.000000 0.000000 -8.243944 4.343864 -4.966457 -0.587997 4.233219 -0.562606 0.000000 0.000000 0.000000 -8.243944 4.343864 -4.966457 -1.147190 -12.884605 1.717127 -3.276350 8.669264 -34.071975 -26.014971 -36.594316 -27.184341 0.000000 0.000000 0.000000 -8.243944 4.343864 -4.966457 -2.395735 20.042779 -6.594713 1.151849 -46.312996 41.729809 -23.656709 61.868912 16.578274 0.000000 0.000000 0.000000 
-4.673632 79.227524 0.030846 0.000000 0.000000 0.000000 25.293205 -65.943373 25.928122 -62.077465 23.687463 57.713056 47.493017 -17.322359 1.422961 7.306832 6.296548 -22.020947 0.000000 0.000000 0.000000 25.293205 -65.943373 25.928122 -50.366850 9.657626 -25.059237 59.774715 12.520164 -6.342849 -23.087796 3.081121 24.587545 0.000000 0.000000 0.000000 25.293205 -65.943373 25.928122 0.000000 0.000001 0.000000 9.549981 1.331675 -2.875279 3.271118 2.428315 -5.955223 0.000000 0.000000 0.000000 -8.544772 3.607197 -5.335210 -0.432474 4.527459 -0.603419 0.000000 0.000000 0.000000 -8.544772 3.607197 -5.335210 -0.816786 -13.963057 4.136255 -2.276657 9.074015 -33.717270 -24.797844 -32.655315 -25.344102 0.000000 0.000000 0.000000 -8.544772 3.607197 -5.335210 -2.022914 18.320640 -7.898819 -0.947567 -47.435022 39.016277 -22.671358 64.758950 15.127899 0.000000 0.000000 0.000000 
